<svg version="1.1" viewBox="0.0 0.0 960.0 960.0" fill="none" stroke="none" stroke-linecap="square"
    stroke-miterlimit="10" xmlns:xlink="http://www.w3.org/1999/xlink"
    xmlns="http://www.w3.org/2000/svg">
    <clipPath id="p.0">
        <path d="m0 0l960.0 0l0 960.0l-960.0 0l0 -960.0z" clip-rule="nonzero" />
    </clipPath>
    <g clip-path="url(#p.0)">
        <path fill="#ffffff" d="m0 0l960.0 0l0 960.0l-960.0 0z" fill-rule="evenodd" />
        <path fill="#000000" fill-opacity="0.0" d="m0 207.0l963.74805 0l0 332.8819l-963.74805 0z"
            fill-rule="evenodd" />
        <path fill="#434343"
            d="m219.46136 464.32l0 -4.140625l21.984375 -10.609375l0 -141.21875l-21.984375 -10.609375l0 -4.140625l89.5 0q30.515625 0 49.015625 11.0q18.5 10.984375 18.5 35.046875q0 14.484375 -9.703125 25.484375q-9.703125 10.984375 -26.265625 17.0625q-16.546875 6.078125 -37.75 6.078125l-22.25 0l0 61.296875l26.390625 10.609375l0 4.140625l-87.4375 0zm61.046875 -156.48438l0 67.765625l12.421875 0q20.6875 0 32.328125 -9.5625q11.640625 -9.578125 11.640625 -24.0625q0 -18.109375 -11.90625 -26.125q-11.890625 -8.015625 -33.625 -8.015625l-10.859375 0zm115.87402 156.48438l0 -4.140625l21.984375 -10.609375l0 -141.21875l-21.984375 -10.609375l0 -4.140625l88.203125 0q30.78125 0 52.25 10.09375q21.46875 10.09375 32.71875 27.6875q11.25 17.578125 11.25 39.828125q0 20.171875 -7.375 37.25q-7.359375 17.0625 -20.5625 29.484375q-13.1875 12.40625 -31.03125 19.390625q-17.84375 6.984375 -39.0625 6.984375l-86.390625 0zm77.609375 -156.48438l-16.5625 0l0 142.26562l20.171875 0q30.015625 0 46.296875 -19.265625q16.296875 -19.28125 16.296875 -51.609375q0 -32.59375 -16.6875 -51.984375q-16.671875 -19.40625 -49.515625 -19.40625zm129.83295 156.48438l0 -4.140625l21.984375 -10.609375l0 -141.21875l-21.984375 -10.609375l0 -4.140625l138.39062 0l0 44.75l-4.140625 0l-17.59375 -30.515625l-55.609375 0l0 62.078125l37.25 0l14.484375 -22.25l4.140625 0l0 56.640625l-4.140625 0l-14.484375 -21.71875l-37.25 0l0 66.984375l26.390625 10.609375l0 4.140625l-87.4375 0z"
            fill-rule="nonzero" />
        <path fill="#000000" fill-opacity="0.0"
            d="m-0.005249344 455.24933l963.74805 0l0 340.97638l-963.74805 0z" fill-rule="evenodd" />
        <path fill="#999999"
            d="m198.73367 578.26624l-27.609375 129.82812l28.25 0q3.625 0 4.921875 1.09375q1.296875 1.09375 1.296875 3.171875q0 2.71875 -2.140625 4.671875q-2.140625 1.9375 -6.40625 1.9375l-67.5 0q-3.625 0 -4.921875 -1.15625q-1.296875 -1.171875 -1.296875 -3.25q0 -2.59375 2.140625 -4.53125q2.140625 -1.9375 6.40625 -1.9375l28.25 0l27.59375 -129.82812l-44.5625 0l-8.046875 37.703125q-0.765625 4.015625 -2.65625 5.703125q-1.875 1.6875 -4.328125 1.6875q-1.953125 0 -3.1875 -1.234375q-1.21875 -1.234375 -1.21875 -2.78125q0 -1.171875 0.515625 -3.375l10.359375 -48.578125l121.921875 0l-10.375 48.578125q-0.765625 4.015625 -2.71875 5.703125q-1.9375 1.6875 -4.40625 1.6875q-1.8125 0 -3.046875 -1.234375q-1.21875 -1.234375 -1.21875 -2.78125q0 -1.171875 0.515625 -3.375l8.03125 -37.703125l-44.5625 0zm122.550934 144.98438q-21.375 0 -35.109375 -13.53125q-13.734375 -13.546875 -13.734375 -34.40625q0 -16.96875 10.359375 -34.515625q10.375 -17.5625 28.4375 -27.734375q18.078125 -10.171875 36.609375 -10.171875q21.25 0 34.96875 13.46875q13.734375 13.46875 13.734375 33.5625q0 17.609375 -10.046875 34.96875q-10.03125 17.359375 -28.234375 27.859375q-18.203125 10.5 -36.984375 10.5zm2.46875 -10.890625q15.28125 0 30.234375 -8.609375q14.96875 -8.625 23.1875 -22.875q8.234375 -14.25 8.234375 -28.625q0 -16.328125 -11.265625 -27.328125q-11.265625 -11.015625 -28.765625 -11.015625q-12.5625 0 -23.390625 4.984375q-10.8125 4.984375 -19.171875 12.828125q-8.34375 7.828125 -13.796875 18.78125q-5.4375 10.953125 -5.4375 22.609375q0 16.96875 11.265625 28.109375q11.28125 11.140625 28.90625 11.140625zm156.75403 10.890625q-21.375 0 -35.109375 -13.53125q-13.734375 -13.546875 -13.734375 -34.40625q0 -16.96875 10.359375 -34.515625q10.375 -17.5625 28.4375 -27.734375q18.078125 -10.171875 36.609375 -10.171875q21.25 0 34.96875 13.46875q13.734375 13.46875 13.734375 33.5625q0 17.609375 -10.046875 34.96875q-10.03125 17.359375 -28.234375 27.859375q-18.203125 10.5 -36.984375 10.5zm2.46875 -10.890625q15.28125 0 30.234375 -8.609375q14.96875 -8.625 23.1875 -22.875q8.234375 -14.25 8.234375 -28.625q0 -16.328125 -11.265625 -27.328125q-11.265625 -11.015625 -28.765625 -11.015625q-12.5625 0 -23.390625 4.984375q-10.8125 4.984375 -19.171875 12.828125q-8.34375 7.828125 -13.796875 18.78125q-5.4375 10.953125 -5.4375 22.609375q0 16.96875 11.265625 28.109375q11.28125 11.140625 28.90625 11.140625zm198.34784 -155.98438l-32.265625 151.71875l42.75 0q3.625 0 4.921875 1.09375q1.296875 1.09375 1.296875 3.171875q0 2.71875 -2.140625 4.671875q-2.125 1.9375 -6.40625 1.9375l-96.390625 0q-3.625 0 -4.921875 -1.15625q-1.296875 -1.171875 -1.296875 -3.25q0 -2.59375 2.140625 -4.53125q2.140625 -1.9375 6.40625 -1.9375l42.765625 0l29.921875 -140.70312l-31.484375 0q-3.625 0 -4.921875 -1.15625q-1.296875 -1.171875 -1.296875 -3.25q0 -2.59375 2.140625 -4.59375q2.140625 -2.015625 6.40625 -2.015625l42.375 0zm177.34778 57.53125q0.78125 -3.765625 2.71875 -5.4375q1.953125 -1.6875 4.28125 -1.6875q1.953125 0 3.171875 1.234375q1.234375 1.21875 1.234375 2.78125q0 1.15625 -0.515625 3.359375l-3.890625 18.65625q-0.90625 3.890625 -2.78125 5.578125q-1.875 1.671875 -4.34375 1.671875q-1.8125 0 -3.046875 -1.15625q-1.21875 -1.171875 -1.21875 -2.71875l0.125 -2.203125q0.125 -1.046875 0.125 -1.953125q0 -6.984375 -6.21875 -11.390625q-9.203125 -6.734375 -25.78125 -6.734375q-19.953125 0 -31.734375 8.546875q-8.8125 6.34375 -8.8125 13.46875q0 7.0 7.640625 11.40625q5.578125 3.109375 23.578125 5.125q18.015625 2.0 25.78125 4.59375q10.890625 3.5 16.203125 10.109375q5.3125 6.59375 5.3125 14.890625q0 9.578125 -7.0 19.171875q-7.0 9.59375 -21.390625 15.8125q-14.375 6.21875 -32.375 6.21875q-12.828125 0 -22.671875 -3.3125q-9.84375 -3.296875 -16.71875 -9.78125q-1.03125 5.3125 -2.59375 6.875q-2.203125 1.9375 -4.78125 1.9375q-1.8125 0 -3.046875 -1.15625q-1.234375 -1.171875 -1.234375 -2.859375q0 -1.171875 0.390625 -3.234375l4.796875 -22.421875q0.765625 -3.875 2.703125 -5.5625q1.953125 -1.6875 4.421875 -1.6875q1.8125 0 3.03125 1.234375q1.234375 1.21875 1.234375 2.90625q0 1.046875 -0.390625 2.984375q-0.375 1.9375 -0.375 2.84375q0 7.390625 7.640625 12.96875q10.09375 7.375 29.53125 7.375q23.1875 0 35.359375 -9.1875q12.1875 -9.203125 12.1875 -18.28125q0 -4.921875 -3.5625 -9.640625q-3.5625 -4.734375 -10.828125 -7.515625q-7.25 -2.796875 -23.765625 -4.53125q-16.515625 -1.75 -24.09375 -4.40625q-7.578125 -2.65625 -11.859375 -8.09375q-4.265625 -5.453125 -4.265625 -12.453125q0 -8.15625 5.5625 -15.984375q5.578125 -7.84375 18.59375 -13.609375q13.015625 -5.765625 29.21875 -5.765625q11.265625 0 19.875 2.71875q8.625 2.71875 14.578125 8.296875z"
            fill-rule="nonzero" />
    </g>
</svg>